# xmcd
#
# Track frame offsets: 
#        150
#        13113
#        28733
#        43852
#        56880
#        72720
#        88976
#        128695
#        149416
#        167023
#        184204
#        198310
#        215590
#        238087
#        255114
#
# Disc length: 3697 seconds
#
# Revision: 0
# Processed by: cddbd v1.5.2PL0 Copyright (c) Steve Scherf et al.
# Submitted via: ExactAudioCopy v1.0b4
#
DISCID=e50e6f0f
DTITLE=Peter Green - The Anthology [ disk 3 ]
DYEAR=2008
DGENRE=Blues Rock
TTITLE0=Man Of The World
TTITLE1=Before The Beginning
TTITLE2=Mamma Don'tcha Cry
TTITLE3=Underway
TTITLE4=Rattlesnake Shake
TTITLE5=It's Gonna Be Me
TTITLE6=White Sky (Love That Evil Woman)
TTITLE7=The Green Manalishi (With The Two Prong Crown)
TTITLE8=Show-biz Blues
TTITLE9=In The Skies
TTITLE10=Like A Hot Tomato
TTITLE11=Whatcha Gonna Do
TTITLE12=Carry My Love
TTITLE13=Corners Of My Mind
TTITLE14=Hidden Depth (feat. Zoot Money)
EXTD=
EXTT0=
EXTT1=
EXTT2=
EXTT3=
EXTT4=
EXTT5=
EXTT6=
EXTT7=
EXTT8=
EXTT9=
EXTT10=
EXTT11=
EXTT12=
EXTT13=
EXTT14=
PLAYORDER=
